<svg width="16" height="13" viewBox="0 0 16 13" fill="none" xmlns="http://www.w3.org/2000/svg">
<path d="M8.00002 2.66667C9.84002 2.66667 11.3334 4.16 11.3334 6C11.3334 6.43333 11.2467 6.84 11.0934 7.22L13.04 9.16667C14.0467 8.32667 14.84 7.24 15.3267 6C14.1734 3.07333 11.3267 1 7.99335 1C7.06002 1 6.16669 1.16667 5.34002 1.46667L6.78002 2.90667C7.16002 2.75333 7.56669 2.66667 8.00002 2.66667ZM1.33335 0.846667L2.85335 2.36667L3.16002 2.67333C2.05335 3.53333 1.18669 4.68 0.666687 6C1.82002 8.92667 4.66669 11 8.00002 11C9.03335 11 10.02 10.8 10.92 10.44L11.2 10.72L13.1534 12.6667L14 11.82L2.18002 0L1.33335 0.846667ZM5.02002 4.53333L6.05335 5.56667C6.02002 5.70667 6.00002 5.85333 6.00002 6C6.00002 7.10667 6.89335 8 8.00002 8C8.14669 8 8.29335 7.98 8.43335 7.94667L9.46669 8.98C9.02002 9.2 8.52669 9.33333 8.00002 9.33333C6.16002 9.33333 4.66669 7.84 4.66669 6C4.66669 5.47333 4.80002 4.98 5.02002 4.53333ZM7.89335 4.01333L9.99335 6.11333L10.0067 6.00667C10.0067 4.9 9.11335 4.00667 8.00669 4.00667L7.89335 4.01333Z" fill="#CED9E5"/>
</svg>
